<svg id="Capa_5" data-name="Capa 5" xmlns="http://www.w3.org/2000/svg" viewBox="0 0 407.8 544"><defs><style>.cls-1{fill:#fcfcfc;}.cls-2{fill:#fff;}</style></defs><path d="M9.78,65.34l52.81-52A16.85,16.85,0,0,1,74.39,8.5h89.28a14.26,14.26,0,0,1,13.79,10.61l38,143.39,23.69-90a18.35,18.35,0,0,1,5-8.53l53.12-51.13A15.47,15.47,0,0,1,308,8.5h89a15.31,15.31,0,0,1,14.91,18.77L305.77,485a19.37,19.37,0,0,1-5.27,9.41l-54,53.16a17,17,0,0,1-11.95,4.9H141.36a13.14,13.14,0,0,1-12.69-9.74L5.15,82.36A17.49,17.49,0,0,1,9.78,65.34Z" transform="translate(-4.55 -8.5)"/><path class="cls-1" d="M84,26.5H148a13.85,13.85,0,0,1,13.36,10.19l56.12,205.09a15.21,15.21,0,0,0,4.57,7.36c5.93,5.29,18.41,13,30.58-.64a14.26,14.26,0,0,0,3.16-6.2l49-205.93a12.85,12.85,0,0,1,12.5-9.87h68.06a6.37,6.37,0,0,1,6.2,7.81L287.41,478.36a10.55,10.55,0,0,1-10.27,8.14H201.85a10.06,10.06,0,0,1-9.71-7.46L74.71,38.53A9.56,9.56,0,0,1,84,26.5Z" transform="translate(-4.55 -8.5)"/><rect x="89.95" y="33" width="58" height="13" rx="6.5"/><rect x="313.95" y="33" width="58" height="13" rx="6.5"/><rect x="306.95" y="65" width="58" height="13" rx="6.5"/><rect x="297.95" y="97" width="58" height="13" rx="6.5"/><rect x="288.95" y="129" width="58" height="13" rx="6.5"/><rect x="279.95" y="161" width="58" height="13" rx="6.5"/><rect x="273.95" y="193" width="58" height="13" rx="6.5"/><rect x="263.95" y="225" width="58" height="13" rx="6.5"/><rect x="259.95" y="257" width="58" height="13" rx="6.5"/><rect x="156.95" y="289" width="152" height="13" rx="6.5"/><rect x="167.95" y="321" width="132" height="13" rx="6.5"/><rect x="171.95" y="353" width="121" height="13" rx="6.5"/><rect x="182.95" y="385" width="104" height="13" rx="6.5"/><rect x="189.95" y="417" width="90" height="13" rx="6.5"/><rect x="194.95" y="449" width="79" height="13" rx="6.5"/><rect x="95.95" y="65" width="58" height="13" rx="6.5"/><rect x="103.95" y="97" width="58" height="13" rx="6.5"/><rect x="113.95" y="129" width="58" height="13" rx="6.5"/><rect x="118.95" y="161" width="58" height="13" rx="6.5"/><rect x="127.95" y="193" width="58" height="13" rx="6.5"/><rect x="136.95" y="225" width="58" height="13" rx="6.5"/><rect x="147.95" y="257" width="58" height="13" rx="6.5"/><rect class="cls-2" x="72.32" y="85.68" width="10.06" height="333" rx="5.03" transform="translate(-67.67 20.42) rotate(-15.13)"/><rect class="cls-2" x="117.33" y="191" width="10.06" height="256.39" rx="5.03" transform="translate(-83.6 34.49) rotate(-15.13)"/><rect class="cls-2" x="69.24" y="122.6" width="10.06" height="48.79" rx="5.03" transform="translate(-40.33 15.97) rotate(-15.13)"/><rect class="cls-2" x="128.24" y="433.6" width="10.06" height="48.79" rx="5.03" transform="translate(-119.44 42.15) rotate(-15.13)"/></svg>